# Blender v2.79 (sub 0) OBJ File: 'chao.blend'
# www.blender.org
mtllib chao-reto.mtl
o chao_reto_Plane
v -0.300664 0.073355 1.000000
v 1.699336 0.073355 1.000000
v -0.300664 0.073355 -1.000000
v 1.699336 0.073355 -1.000000
v -0.300664 0.146709 1.126729
v 1.699336 0.146709 1.126729
v -0.300664 0.146709 -1.126729
v 1.699336 0.146709 -1.126729
v -0.300664 0.146709 1.573182
v 1.699336 0.146709 1.573182
v -0.300664 0.146709 -1.573182
v 1.699336 0.146709 -1.573182
v -0.300664 0.074750 1.573182
v 1.699336 0.074750 1.573182
v -0.300664 0.074750 -1.573182
v 1.699336 0.074750 -1.573182
v -0.240432 0.212008 -0.964465
v 0.241313 0.212008 -0.964465
v -0.240432 0.212008 -0.559217
v 0.241313 0.212008 -0.559217
v 0.311281 0.212008 -0.964465
v 0.461384 0.212008 -0.964465
v 0.311281 0.212008 -0.559217
v 0.461384 0.212008 -0.559217
v 1.513417 0.212008 -0.921988
v 1.513417 0.212008 0.039680
v 1.108168 0.212008 -0.921988
v 1.108168 0.212008 0.039680
v 1.542837 0.212008 -0.964465
v 1.692940 0.212008 -0.964465
v 1.542837 0.212008 -0.559217
v 1.692940 0.212008 -0.559217
v 0.900441 0.212008 -0.926986
v 0.900441 0.212008 -0.521944
v 0.495193 0.212008 -0.926986
v 0.495193 0.212008 -0.521944
v 0.276081 0.212008 -0.495677
v 0.276081 0.212008 -0.345574
v -0.129167 0.212008 -0.495677
v -0.129167 0.212008 -0.345574
v -0.297438 0.212008 -0.504274
v -0.147335 0.212008 -0.504274
v -0.297438 0.212008 0.974365
v -0.147335 0.212008 0.974365
v 0.281861 0.212008 -0.280674
v 0.281861 0.212008 -0.130571
v -0.123387 0.212008 -0.280674
v -0.123387 0.212008 -0.130571
v 0.311281 0.212008 -0.528653
v 0.461384 0.212008 -0.528653
v 0.311281 0.212008 0.510467
v 0.461384 0.212008 0.510467
v 0.934118 0.212008 -0.958500
v 1.084221 0.212008 -0.958500
v 0.934118 0.212008 0.936936
v 1.084221 0.212008 0.936936
v 1.542837 0.212008 -0.528653
v 1.692940 0.212008 -0.528653
v 1.542837 0.212008 0.507088
v 1.692940 0.212008 0.507088
v 0.311281 0.212008 0.546944
v 0.461384 0.212008 0.546944
v 0.311281 0.212008 0.952192
v 0.461384 0.212008 0.952192
v 1.542837 0.212008 0.546944
v 1.692940 0.212008 0.546944
v 1.542837 0.212008 0.952192
v 1.692940 0.212008 0.952192
v 0.900441 0.212008 -0.383029
v 0.900441 0.212008 0.661233
v 0.495193 0.212008 -0.383029
v 0.495193 0.212008 0.661233
v 1.513417 0.212008 0.360971
v 1.513417 0.212008 0.926563
v 1.108168 0.212008 0.360971
v 1.108168 0.212008 0.926563
v 1.513417 0.212008 0.123720
v 1.513417 0.212008 0.273823
v 1.108168 0.212008 0.123720
v 1.108168 0.212008 0.273823
v 0.281861 0.212008 -0.022413
v 0.281861 0.212008 0.879239
v -0.123387 0.212008 -0.022413
v -0.123387 0.212008 0.879239
v -0.246310 0.144099 -0.966297
v 0.247190 0.144099 -0.966297
v 0.276389 0.222937 -0.761841
v 0.247190 0.144099 -0.557386
v -0.246310 0.144099 -0.557386
v -0.275509 0.222937 -0.761841
v 0.309450 0.144099 -0.966297
v 0.386333 0.216056 -0.968514
v 0.463216 0.144099 -0.966297
v 0.463216 0.144099 -0.557386
v 0.386333 0.216056 -0.555169
v 0.309450 0.144099 -0.557386
v 1.515248 0.144099 -0.926594
v 1.515248 0.144099 0.044287
v 1.310793 0.222937 0.067168
v 1.106337 0.144099 0.044287
v 1.106337 0.144099 -0.926594
v 1.310793 0.222937 -0.949476
v 1.541005 0.144099 -0.966297
v 1.617888 0.216056 -0.968514
v 1.694772 0.144099 -0.966297
v 1.694772 0.144099 -0.557386
v 1.617888 0.216056 -0.555169
v 1.541005 0.144099 -0.557386
v 0.902272 0.144099 -0.931928
v 0.904489 0.216056 -0.724465
v 0.902272 0.144099 -0.517002
v 0.697817 0.222937 -0.492453
v 0.493361 0.144099 -0.517002
v 0.491145 0.216056 -0.724465
v 0.493361 0.144099 -0.931928
v 0.697817 0.222937 -0.956478
v 0.277912 0.144099 -0.497508
v 0.280129 0.216056 -0.420625
v 0.277912 0.144099 -0.343742
v 0.073457 0.222937 -0.334644
v -0.130999 0.144099 -0.343742
v -0.133216 0.216056 -0.420625
v -0.130999 0.144099 -0.497508
v 0.073457 0.222937 -0.506606
v -0.299269 0.144099 -0.506885
v -0.222386 0.216056 -0.510046
v -0.145503 0.144099 -0.506885
v -0.119363 0.239980 0.235045
v -0.145503 0.144099 0.976976
v -0.222386 0.216056 0.980136
v -0.299269 0.144099 0.976976
v -0.325410 0.239980 0.235045
v 0.283692 0.144099 -0.282506
v 0.285909 0.216056 -0.205623
v 0.283692 0.144099 -0.128740
v -0.125219 0.144099 -0.128740
v -0.127436 0.216056 -0.205623
v -0.125219 0.144099 -0.282506
v 0.309450 0.144099 -0.530484
v 0.386333 0.216056 -0.532701
v 0.463216 0.144099 -0.530484
v 0.489409 0.240032 -0.009093
v 0.463216 0.144099 0.512298
v 0.386333 0.216056 0.514515
v 0.309450 0.144099 0.512298
v 0.283257 0.240032 -0.009093
v 0.932287 0.144099 -0.961852
v 1.009170 0.216056 -0.965909
v 1.086053 0.144099 -0.961852
v 1.112154 0.239941 -0.010782
v 1.086053 0.144099 0.940288
v 1.009170 0.216056 0.944344
v 0.932287 0.144099 0.940288
v 0.906185 0.239941 -0.010782
v 1.541005 0.144099 -0.530484
v 1.617888 0.216056 -0.532701
v 1.694772 0.144099 -0.530484
v 1.720873 0.239941 -0.010782
v 1.694772 0.144099 0.508920
v 1.617888 0.216056 0.511137
v 1.541005 0.144099 0.508920
v 1.514904 0.239941 -0.010782
v 0.309450 0.144099 0.545112
v 0.386333 0.216056 0.542895
v 0.463216 0.144099 0.545112
v 0.463216 0.144099 0.954023
v 0.386333 0.216056 0.956240
v 0.309450 0.144099 0.954023
v 1.541005 0.144099 0.545112
v 1.617888 0.216056 0.542895
v 1.694772 0.144099 0.545112
v 1.703869 0.222937 0.749568
v 1.694772 0.144099 0.954023
v 1.617888 0.216056 0.956240
v 1.541005 0.144099 0.954023
v 1.531908 0.222937 0.749568
v 0.902272 0.144099 -0.395771
v 0.902272 0.144099 0.673975
v 0.697817 0.222937 0.737268
v 0.493361 0.144099 0.673975
v 0.493361 0.144099 -0.395771
v 0.697817 0.222937 -0.459064
v 0.908795 0.147031 0.860183
v 0.486839 0.147031 0.860183
v 1.515248 0.144099 0.354070
v 1.517465 0.216056 0.643767
v 1.515248 0.144099 0.933464
v 1.310793 0.222937 0.967744
v 1.106337 0.144099 0.933464
v 1.104120 0.216056 0.643767
v 1.106337 0.144099 0.354070
v 1.310793 0.222937 0.319789
v 1.515248 0.144099 0.121888
v 1.517465 0.216056 0.198771
v 1.515248 0.144099 0.275654
v 1.106337 0.144099 0.275654
v 1.104120 0.216056 0.198771
v 1.106337 0.144099 0.121888
v 0.493361 0.144099 0.783300
v 0.491145 0.216056 0.860183
v 0.493361 0.144099 0.937066
v 0.902272 0.144099 0.937066
v 0.904489 0.216056 0.860183
v 0.283692 0.144099 -0.033414
v 0.283692 0.144099 0.890240
v 0.079237 0.222937 0.944890
v -0.125219 0.144099 0.890240
v -0.125219 0.144099 -0.033414
v 0.079237 0.222937 -0.088064
v 0.079237 0.151896 -0.137604
v 0.079237 0.151896 0.994430
v 0.902272 0.144099 0.783300
v 0.495193 0.212008 0.935234
v 0.495193 0.212008 0.785131
v 1.099815 0.147031 0.198771
v 1.521770 0.147031 0.198771
v 1.310793 0.231485 0.643767
v 1.310793 0.151896 0.288714
v 1.099815 0.147031 0.643767
v 1.310793 0.151896 0.998820
v 1.521770 0.147031 0.643767
v 0.900441 0.212008 0.935234
v 0.900441 0.212008 0.785131
v 0.697817 0.151896 -0.516440
v 0.697817 0.151896 0.794644
v 1.617888 0.231485 0.749568
v 1.523660 0.151896 0.749568
v 1.617888 0.147031 0.960546
v 1.712117 0.151896 0.749568
v 1.617888 0.147031 0.538590
v 0.386333 0.147031 0.960546
v 0.386333 0.147031 0.538590
v 1.617888 0.250179 -0.010782
v 1.496916 0.163917 -0.010782
v 1.617888 0.147031 0.515442
v 1.738861 0.163917 -0.010782
v 1.617888 0.147031 -0.537006
v 1.009170 0.250179 -0.010782
v 0.888197 0.163917 -0.010782
v 1.009170 0.147031 0.952224
v 1.130142 0.163917 -0.010782
v 1.009170 0.147031 -0.973788
v 0.386333 0.250279 -0.009093
v 0.265217 0.163982 -0.009093
v 0.386333 0.147031 0.518821
v 0.507448 0.163982 -0.009093
v 0.386333 0.147031 -0.537006
v -0.131741 0.147031 -0.205623
v -0.222386 0.250222 0.235045
v 0.290215 0.147031 -0.205623
v -0.343419 0.163945 0.235045
v -0.222386 0.147031 0.986274
v -0.101353 0.163945 0.235045
v -0.222386 0.147031 -0.516184
v 0.073457 0.231485 -0.420625
v 0.073457 0.151896 -0.514853
v -0.137521 0.147031 -0.420625
v 0.073457 0.151896 -0.326397
v 0.284435 0.147031 -0.420625
v 0.697817 0.231485 -0.724465
v 0.697817 0.151896 -0.978732
v 0.486839 0.147031 -0.724465
v 0.697817 0.151896 -0.470198
v 0.908795 0.147031 -0.724465
v 1.617888 0.147031 -0.550863
v 1.617888 0.147031 -0.972819
v 1.310793 0.151896 -0.970218
v 1.310793 0.151896 0.087910
v 0.386333 0.147031 -0.550863
v 0.386333 0.147031 -0.972819
v -0.301977 0.151896 -0.761841
v 0.302858 0.151896 -0.761841
vn 0.9490 0.2239 0.2219
vn 0.0000 0.0270 -0.9996
vn -0.9490 0.2239 -0.2219
vn 0.0000 0.0270 0.9996
vn 0.0714 0.0456 -0.9964
vn -0.0000 0.9985 0.0539
vn -0.0714 0.0456 0.9964
vn 0.9996 0.0270 0.0000
vn 0.0539 0.9985 0.0000
vn -0.0539 0.9985 0.0000
vn -0.1773 0.1789 0.9678
vn 0.1773 0.1789 -0.9678
vn -0.9996 0.0270 0.0000
vn 0.9964 0.0456 0.0714
vn -0.0725 0.0731 0.9947
vn -0.9964 0.0456 -0.0714
vn 0.0725 0.0731 -0.9947
vn 0.0662 0.9946 -0.0795
vn 0.1014 0.0648 -0.9927
vn 0.9891 0.1373 0.0526
vn -0.1014 0.0648 0.9927
vn -0.9891 0.1373 -0.0526
vn -0.0813 0.9958 -0.0432
vn 0.9877 0.1373 0.0749
vn -0.9877 0.1373 -0.0749
vn -0.0812 0.9948 -0.0615
vn 0.1296 0.0828 -0.9881
vn 0.9897 0.1372 0.0410
vn -0.1296 0.0828 0.9881
vn -0.9897 0.1372 -0.0410
vn -0.0813 0.9961 -0.0337
vn 0.9877 0.1370 0.0749
vn -0.9877 0.1370 -0.0749
vn -0.0812 0.9948 -0.0616
vn 0.9947 0.0731 0.0725
vn -0.9947 0.0731 -0.0725
vn -0.0795 0.9946 -0.0662
vn -0.4113 0.4150 0.8116
vn 0.4113 0.4150 -0.8116
vn -0.3716 0.3749 0.8493
vn 0.3716 0.3750 -0.8493
vn -0.3716 0.3750 -0.8493
vn 0.3716 0.3749 0.8493
vn 0.9964 0.0456 -0.0714
vn -0.9964 0.0456 0.0714
vn -0.0000 0.9985 -0.0539
vn -0.4113 0.4150 -0.8116
vn 0.4113 0.4150 0.8116
vn -0.0795 0.9946 0.0662
vn 0.0795 0.9946 0.0662
vn 0.0795 0.9946 -0.0662
vn -0.9947 0.0731 0.0725
vn 0.0714 0.0456 0.9964
vn 0.9947 0.0731 -0.0725
vn -0.0714 0.0456 -0.9964
vn -0.0812 0.9948 0.0616
vn 0.0812 0.9948 0.0616
vn 0.0812 0.9948 -0.0616
vn -0.9877 0.1370 0.0749
vn 0.9877 0.1370 -0.0749
vn -0.0813 0.9961 0.0337
vn 0.0813 0.9961 0.0337
vn 0.0813 0.9961 -0.0337
vn -0.9897 0.1372 0.0410
vn 0.1296 0.0828 0.9881
vn 0.9897 0.1372 -0.0410
vn -0.1296 0.0828 -0.9881
vn -0.0812 0.9948 0.0615
vn 0.0812 0.9948 0.0615
vn 0.0812 0.9948 -0.0615
vn -0.9877 0.1373 0.0749
vn 0.9877 0.1373 -0.0749
vn -0.0813 0.9958 0.0432
vn 0.0813 0.9958 0.0432
vn 0.0813 0.9958 -0.0432
vn -0.9891 0.1373 0.0526
vn 0.1014 0.0648 0.9927
vn 0.9891 0.1373 -0.0526
vn -0.1014 0.0648 -0.9927
vn -0.0662 0.9946 -0.0795
vn -0.0662 0.9946 0.0795
vn 0.0662 0.9946 0.0795
vn -0.0725 0.0731 -0.9947
vn 0.0725 0.0731 0.9947
vn -0.1773 0.1789 -0.9678
vn 0.1773 0.1789 0.9678
vn -0.9490 0.2239 0.2219
vn 0.9490 0.2239 -0.2219
vn 0.9986 0.0457 0.0265
vn -0.1893 0.1910 0.9632
vn -0.9986 0.0457 -0.0265
vn 0.1893 0.1910 -0.9632
vn 0.0664 0.9974 -0.0295
vn 0.9988 0.0457 0.0190
vn -0.2557 0.2580 0.9317
vn -0.9988 0.0457 -0.0190
vn 0.2557 0.2580 -0.9317
vn 0.0664 0.9976 -0.0212
vn -0.0664 0.9976 -0.0212
vn -0.0664 0.9976 0.0212
vn 0.0664 0.9976 0.0212
vn -0.2557 0.2580 -0.9317
vn -0.9988 0.0457 0.0190
vn 0.2557 0.2580 0.9317
vn 0.9988 0.0457 -0.0190
vn -0.0664 0.9974 -0.0295
vn -0.0664 0.9974 0.0295
vn 0.0664 0.9974 0.0295
vn -0.1893 0.1910 -0.9632
vn -0.9986 0.0457 0.0265
vn 0.1893 0.1910 0.9632
vn 0.9986 0.0457 -0.0265
vn 0.0000 1.0000 0.0000
vn 0.0000 0.8655 0.5010
vn 0.0000 0.8655 -0.5010
vn 0.0000 0.0000 -1.0000
vn 0.0000 0.0000 1.0000
usemtl concreto
s off
f 272//1 87//1 20//1 88//1
f 85//2 17//2 18//2 86//2
f 271//3 90//3 17//3 85//3
f 88//4 20//4 19//4 89//4
f 270//5 92//5 22//5 93//5
f 20//6 87//6 90//6 19//6
f 269//7 95//7 23//7 96//7
f 93//8 22//8 24//8 94//8
f 24//9 22//9 92//9 95//9
f 95//10 92//10 21//10 23//10
f 268//11 99//11 28//11 100//11
f 97//8 25//8 26//8 98//8
f 267//12 102//12 25//12 97//12
f 100//13 28//13 27//13 101//13
f 28//10 99//10 102//10 27//10
f 259//14 118//14 38//14 119//14
f 258//15 120//15 40//15 121//15
f 257//16 122//16 39//16 123//16
f 256//17 124//17 37//17 117//17
f 255//18 118//18 37//18 124//18
f 254//19 126//19 42//19 127//19
f 253//20 128//20 44//20 129//20
f 252//21 130//21 43//21 131//21
f 251//22 132//22 41//22 125//22
f 250//14 134//14 46//14 135//14
f 249//23 126//23 41//23 132//23
f 248//16 137//16 47//16 138//16
f 247//5 140//5 50//5 141//5
f 246//24 142//24 52//24 143//24
f 245//7 144//7 51//7 145//7
f 244//25 146//25 49//25 139//25
f 243//26 140//26 49//26 146//26
f 242//27 148//27 54//27 149//27
f 241//28 150//28 56//28 151//28
f 240//29 152//29 55//29 153//29
f 239//30 154//30 53//30 147//30
f 238//31 148//31 53//31 154//31
f 237//5 156//5 58//5 157//5
f 236//32 158//32 60//32 159//32
f 235//7 160//7 59//7 161//7
f 234//33 162//33 57//33 155//33
f 233//34 156//34 57//34 162//34
f 230//5 170//5 66//5 171//5
f 229//35 172//35 68//35 173//35
f 228//7 174//7 67//7 175//7
f 227//36 176//36 65//36 169//36
f 226//37 170//37 65//37 176//37
f 225//38 179//38 72//38 180//38
f 177//8 69//8 70//8 178//8
f 224//39 182//39 69//39 177//39
f 180//13 72//13 71//13 181//13
f 216//14 194//14 78//14 195//14
f 72//10 179//10 182//10 71//10
f 215//16 197//16 79//16 198//16
f 195//4 78//4 80//4 196//4
f 80//6 78//6 194//6 197//6
f 202//4 222//4 213//4 201//4
f 211//40 206//40 84//40 207//40
f 204//8 81//8 82//8 205//8
f 210//41 209//41 81//41 204//41
f 207//13 84//13 83//13 208//13
f 206//9 82//9 81//9 209//9
f 208//42 83//42 209//42 210//42
f 205//43 82//43 206//43 211//43
f 212//44 223//44 203//44 183//44
f 198//2 79//2 77//2 193//2
f 196//45 80//45 197//45 215//45
f 193//44 77//44 194//44 216//44
f 201//45 213//45 200//45 184//45
f 200//46 203//46 223//46 214//46
f 197//46 194//46 77//46 79//46
f 213//6 222//6 203//6 200//6
f 184//16 200//16 214//16 199//16
f 199//2 214//2 223//2 212//2
f 183//14 203//14 222//14 202//14
f 179//9 70//9 69//9 182//9
f 181//47 71//47 182//47 224//47
f 178//48 70//48 179//48 225//48
f 174//49 226//49 176//49 67//49
f 68//50 172//50 226//50 174//50
f 172//51 66//51 170//51 226//51
f 175//52 67//52 176//52 227//52
f 173//53 68//53 174//53 228//53
f 171//54 66//54 172//54 229//54
f 169//55 65//55 170//55 230//55
f 160//56 233//56 162//56 59//56
f 60//57 158//57 233//57 160//57
f 158//58 58//58 156//58 233//58
f 161//59 59//59 162//59 234//59
f 159//53 60//53 160//53 235//53
f 157//60 58//60 158//60 236//60
f 155//55 57//55 156//55 237//55
f 152//61 238//61 154//61 55//61
f 56//62 150//62 238//62 152//62
f 150//63 54//63 148//63 238//63
f 153//64 55//64 154//64 239//64
f 151//65 56//65 152//65 240//65
f 149//66 54//66 150//66 241//66
f 147//67 53//67 148//67 242//67
f 144//68 243//68 146//68 51//68
f 52//69 142//69 243//69 144//69
f 142//70 50//70 140//70 243//70
f 145//71 51//71 146//71 244//71
f 143//53 52//53 144//53 245//53
f 141//72 50//72 142//72 246//72
f 139//55 49//55 140//55 247//55
f 136//45 48//45 137//45 248//45
f 130//73 249//73 132//73 43//73
f 44//74 128//74 249//74 130//74
f 128//75 42//75 126//75 249//75
f 133//44 45//44 134//44 250//44
f 131//76 43//76 132//76 251//76
f 129//77 44//77 130//77 252//77
f 127//78 42//78 128//78 253//78
f 125//79 41//79 126//79 254//79
f 122//80 255//80 124//80 39//80
f 40//81 120//81 255//81 122//81
f 120//82 38//82 118//82 255//82
f 123//83 39//83 124//83 256//83
f 121//45 40//45 122//45 257//45
f 119//84 38//84 120//84 258//84
f 117//44 37//44 118//44 259//44
f 99//9 26//9 25//9 102//9
f 101//85 27//85 102//85 267//85
f 98//86 26//86 99//86 268//86
f 96//13 23//13 21//13 91//13
f 94//53 24//53 95//53 269//53
f 91//55 21//55 92//55 270//55
f 87//46 18//46 17//46 90//46
f 89//87 19//87 90//87 271//87
f 86//88 18//88 87//88 272//88
f 84//10 206//10 209//10 83//10
usemtl concretoescuro
f 137//46 134//46 45//46 47//46
f 266//5 104//5 30//5 105//5
f 265//7 107//7 31//7 108//7
f 105//8 30//8 32//8 106//8
f 32//9 30//9 104//9 107//9
f 264//89 110//89 34//89 111//89
f 263//90 112//90 36//90 113//90
f 262//91 114//91 35//91 115//91
f 261//92 116//92 33//92 109//92
f 260//93 110//93 33//93 116//93
f 135//4 46//4 48//4 136//4
f 48//6 46//6 134//6 137//6
f 232//5 164//5 62//5 165//5
f 107//10 104//10 29//10 31//10
f 231//7 167//7 63//7 168//7
f 165//8 62//8 64//8 166//8
f 64//9 62//9 164//9 167//9
f 167//10 164//10 61//10 63//10
f 221//94 186//94 74//94 187//94
f 220//95 188//95 76//95 189//95
f 219//96 190//96 75//96 191//96
f 218//97 192//97 73//97 185//97
f 217//98 186//98 73//98 192//98
f 190//99 217//99 192//99 75//99
f 76//100 188//100 217//100 190//100
f 188//101 74//101 186//101 217//101
f 191//102 75//102 192//102 218//102
f 189//103 76//103 190//103 219//103
f 187//104 74//104 188//104 220//104
f 185//105 73//105 186//105 221//105
f 168//13 63//13 61//13 163//13
f 166//53 64//53 167//53 231//53
f 163//55 61//55 164//55 232//55
f 138//2 47//2 45//2 133//2
f 114//106 260//106 116//106 35//106
f 36//107 112//107 260//107 114//107
f 112//108 34//108 110//108 260//108
f 115//109 35//109 116//109 261//109
f 113//110 36//110 114//110 262//110
f 111//111 34//111 112//111 263//111
f 109//112 33//112 110//112 264//112
f 108//13 31//13 29//13 103//13
f 106//53 32//53 107//53 265//53
f 103//55 29//55 104//55 266//55
usemtl terra
f 2//113 4//113 3//113 1//113
f 3//114 4//114 8//114 7//114
f 2//115 1//115 5//115 6//115
usemtl grama
f 7//113 8//113 12//113 11//113
f 6//113 5//113 9//113 10//113
f 11//116 12//116 16//116 15//116
f 10//117 9//117 13//117 14//117
