# Blender v2.79 (sub 0) OBJ File: 'pedra1.blend'
# www.blender.org
mtllib pedra1.mtl
o Icosphere
v 0.014906 -0.177121 0.001600
v 0.717678 -0.065991 0.651338
v -0.239889 0.087252 0.786694
v -0.616407 -0.099723 -0.022851
v -0.225889 0.328869 -0.857558
v 0.756396 -0.169857 -0.419698
v 0.408752 0.449812 0.965219
v -0.524803 0.516754 0.508745
v -0.447613 0.385766 -0.451051
v 0.446053 0.651456 -0.909121
v 1.024150 0.717728 0.114366
v 0.238230 0.980216 0.061482
v -0.142554 -0.118030 0.473563
v 0.407995 -0.139355 0.348005
v 0.253581 0.036069 0.859192
v 0.849436 -0.177049 0.130159
v 0.417574 -0.140587 -0.273856
v -0.381702 -0.188812 -0.009976
v -0.539936 -0.066273 0.433446
v -0.113795 -0.037046 -0.502241
v -0.546931 0.050727 -0.485183
v 0.297080 0.184237 -0.817630
v 0.964070 0.429047 0.421229
v 1.066456 0.192555 -0.195859
v 0.067886 0.266101 1.052243
v 0.634811 0.167244 0.944728
v -0.674829 0.103548 0.245589
v -0.476662 0.323065 0.738689
v -0.460160 0.435716 -0.747561
v -0.661971 0.108888 -0.275769
v 0.711350 0.147947 -0.782696
v 0.068531 0.625271 -1.049404
v 0.789372 0.735106 0.621210
v -0.103511 0.665332 0.847580
v -0.507767 0.254359 0.011315
v -0.099403 0.797962 -0.804267
v 0.939731 0.458262 -0.416240
v 0.358120 0.776094 0.623655
v 0.731254 0.856768 0.138865
v -0.206235 0.857621 0.348573
v -0.165100 0.770519 -0.282410
v 0.391344 0.907303 -0.496213
vn 0.0146 -0.9983 -0.0561
vn -0.0049 -0.9852 0.1712
vn -0.0794 -0.9423 0.3253
vn 0.5031 -0.7400 0.4464
vn 0.5449 -0.8276 0.1347
vn -0.1695 -0.9816 -0.0873
vn -0.0930 -0.8602 -0.5014
vn -0.0808 -0.9706 -0.2266
vn 0.9259 -0.0344 0.3762
vn -0.3673 -0.6267 0.6872
vn -0.0253 -0.8052 0.5925
vn -0.1676 -0.1484 0.9746
vn -0.7016 -0.7079 -0.0809
vn -0.5904 -0.6925 0.4145
vn -0.9948 0.0244 0.0981
vn -0.3197 -0.4415 -0.8384
vn -0.5975 -0.5880 -0.5452
vn -0.8290 0.2683 -0.4907
vn 0.3428 -0.8608 -0.3760
vn -0.0367 -0.6541 -0.7555
vn 0.5020 -0.3567 -0.7878
vn 0.5000 -0.2722 0.8221
vn -0.7378 0.0394 0.6738
vn -0.9840 0.0704 -0.1635
vn -0.0766 0.2658 -0.9609
vn 0.9663 -0.2020 -0.1594
vn 0.2229 0.4235 0.8780
vn 0.5304 0.6528 0.5409
vn 0.0753 0.8758 0.4767
vn -0.8390 0.5190 0.1632
vn -0.2812 0.6644 0.6924
vn -0.4895 0.8643 0.1155
vn -0.7638 0.6398 0.0847
vn -0.7862 0.6113 -0.0899
vn -0.6063 0.7904 -0.0875
vn 0.4547 0.4859 -0.7464
vn -0.4004 0.8289 -0.3906
vn 0.2294 0.9330 -0.2772
vn 0.8112 0.5833 -0.0418
vn 0.8120 0.3696 -0.4516
vn 0.3615 0.9323 -0.0048
vn -0.0415 0.9982 0.0439
usemtl Material.001
s 1
f 1//1 14//2 13//3
f 2//4 14//2 16//5
f 1//1 13//3 18//6
f 1//1 18//6 20//7
f 1//1 20//7 17//8
f 2//4 16//5 23//9
f 3//10 15//11 25//12
f 4//13 19//14 27//15
f 5//16 21//17 29//18
f 6//19 22//20 31//21
f 2//4 23//9 26//22
f 3//10 25//12 28//23
f 4//13 27//15 30//24
f 5//16 29//18 32//25
f 6//19 31//21 24//26
f 7//27 33//28 38//29
f 8//30 34//31 40//32
f 9//33 35//34 41//35
f 10//36 36//37 42//38
f 11//39 37//40 39//41
f 39//41 42//38 12//42
f 39//41 37//40 42//38
f 37//40 10//36 42//38
f 42//38 41//35 12//42
f 42//38 36//37 41//35
f 36//37 9//33 41//35
f 41//35 40//32 12//42
f 41//35 35//34 40//32
f 35//34 8//30 40//32
f 40//32 38//29 12//42
f 40//32 34//31 38//29
f 34//31 7//27 38//29
f 38//29 39//41 12//42
f 38//29 33//28 39//41
f 33//28 11//39 39//41
f 24//26 37//40 11//39
f 24//26 31//21 37//40
f 31//21 10//36 37//40
f 32//25 36//37 10//36
f 32//25 29//18 36//37
f 29//18 9//33 36//37
f 30//24 35//34 9//33
f 30//24 27//15 35//34
f 27//15 8//30 35//34
f 28//23 34//31 8//30
f 28//23 25//12 34//31
f 25//12 7//27 34//31
f 26//22 33//28 7//27
f 26//22 23//9 33//28
f 23//9 11//39 33//28
f 31//21 32//25 10//36
f 31//21 22//20 32//25
f 22//20 5//16 32//25
f 29//18 30//24 9//33
f 29//18 21//17 30//24
f 21//17 4//13 30//24
f 27//15 28//23 8//30
f 27//15 19//14 28//23
f 19//14 3//10 28//23
f 25//12 26//22 7//27
f 25//12 15//11 26//22
f 15//11 2//4 26//22
f 23//9 24//26 11//39
f 23//9 16//5 24//26
f 16//5 6//19 24//26
f 17//8 22//20 6//19
f 17//8 20//7 22//20
f 20//7 5//16 22//20
f 20//7 21//17 5//16
f 20//7 18//6 21//17
f 18//6 4//13 21//17
f 18//6 19//14 4//13
f 18//6 13//3 19//14
f 13//3 3//10 19//14
f 16//5 17//8 6//19
f 16//5 14//2 17//8
f 14//2 1//1 17//8
f 13//3 15//11 3//10
f 13//3 14//2 15//11
f 14//2 2//4 15//11
