# Blender v2.79 (sub 0) OBJ File: 'pedra3.blend'
# www.blender.org
mtllib pedra3.mtl
o Icosphere
v -0.159860 0.304611 0.630765
v 0.551743 0.365122 1.059763
v -0.838363 0.167776 1.059015
v -0.619837 0.127401 0.516953
v -0.158435 0.180947 -0.731745
v 0.590826 -0.148261 -0.327201
v -0.151457 0.555698 1.112857
v -0.768066 0.615499 0.993186
v -0.650977 0.359359 -0.102284
v 0.607240 0.366872 -0.779402
v 0.756579 0.457073 -0.277809
v 0.054582 1.055964 0.300747
v -0.689294 0.198858 0.962124
v 0.152898 0.532439 1.031562
v -0.682283 0.190632 1.134028
v 0.851434 0.146249 0.529889
v 0.462104 -0.038654 -0.050995
v -0.470405 0.074588 0.496438
v -0.807281 0.121428 0.978060
v 0.009051 -0.152072 -0.355218
v -0.479112 -0.043770 -0.305993
v 0.418869 0.009273 -0.717776
v 0.726689 0.307070 0.173435
v 0.676582 0.099682 -0.283323
v -0.750845 0.251277 1.177941
v 0.246345 0.447614 1.188544
v -0.852096 0.374602 0.947435
v -0.874468 0.358890 1.101128
v -0.581527 0.291414 -0.613458
v -0.658299 0.207879 0.122752
v 0.549307 0.005329 -0.739712
v 0.255913 0.449257 -0.935951
v 0.572998 0.625951 0.394593
v -0.409109 0.728920 1.021562
v -0.798272 0.645314 0.804761
v -0.436677 0.630842 -0.617422
v 0.655744 0.234395 -0.536926
v 0.065267 0.919201 0.861283
v 0.684716 0.643424 -0.161186
v -0.332022 1.055569 0.781126
v -0.707916 0.790855 0.142112
v 0.696682 0.752058 -0.446512
vn 0.2448 -0.8832 0.3999
vn -0.0204 -0.9234 -0.3832
vn 0.4200 -0.8742 0.2436
vn 0.3858 0.1618 0.9082
vn 0.8196 -0.3388 0.4620
vn 0.0772 -0.9576 0.2774
vn -0.0445 -0.9894 -0.1378
vn -0.0817 -0.9524 0.2936
vn 0.9515 0.3062 0.0293
vn -0.6623 -0.7106 0.2373
vn 0.1324 -0.8847 0.4469
vn -0.2745 -0.1937 0.9419
vn -0.6047 -0.7929 -0.0754
vn -0.4107 -0.8918 0.1896
vn -0.9863 0.0126 -0.1645
vn -0.2749 -0.5301 -0.8021
vn -0.5478 -0.8067 -0.2215
vn -0.7802 -0.1502 -0.6072
vn 0.2601 -0.9593 -0.1096
vn -0.1290 -0.7828 -0.6087
vn 0.4578 -0.6184 -0.6387
vn 0.3421 0.2643 0.9017
vn -0.8426 0.1793 0.5079
vn -0.9321 -0.3499 -0.0932
vn 0.1186 0.4662 -0.8766
vn 0.9594 -0.2291 -0.1644
vn 0.0899 0.4958 0.8637
vn 0.7989 0.5122 0.3151
vn 0.4900 0.6128 0.6199
vn -0.6314 0.5525 0.5441
vn -0.1071 0.5227 0.8458
vn -0.2042 0.9139 0.3507
vn -0.9817 -0.0145 -0.1899
vn -0.8970 0.4410 0.0298
vn -0.7695 0.5836 -0.2593
vn 0.6720 0.2145 -0.7088
vn -0.4802 0.6438 -0.5957
vn 0.6887 0.6472 -0.3268
vn 0.8989 0.2875 -0.3305
vn 0.9627 -0.1425 -0.2298
vn 0.8802 0.4519 0.1449
vn 0.1824 0.9755 -0.1227
usemtl Material.001
s 1
f 1//1 14//2 13//3
f 2//4 14//2 16//5
f 1//1 13//3 18//6
f 1//1 18//6 20//7
f 1//1 20//7 17//8
f 2//4 16//5 23//9
f 3//10 15//11 25//12
f 4//13 19//14 27//15
f 5//16 21//17 29//18
f 6//19 22//20 31//21
f 2//4 23//9 26//22
f 3//10 25//12 28//23
f 4//13 27//15 30//24
f 5//16 29//18 32//25
f 6//19 31//21 24//26
f 7//27 33//28 38//29
f 8//30 34//31 40//32
f 9//33 35//34 41//35
f 10//36 36//37 42//38
f 11//39 37//40 39//41
f 39//41 42//38 12//42
f 39//41 37//40 42//38
f 37//40 10//36 42//38
f 42//38 41//35 12//42
f 42//38 36//37 41//35
f 36//37 9//33 41//35
f 41//35 40//32 12//42
f 41//35 35//34 40//32
f 35//34 8//30 40//32
f 40//32 38//29 12//42
f 40//32 34//31 38//29
f 34//31 7//27 38//29
f 38//29 39//41 12//42
f 38//29 33//28 39//41
f 33//28 11//39 39//41
f 24//26 37//40 11//39
f 24//26 31//21 37//40
f 31//21 10//36 37//40
f 32//25 36//37 10//36
f 32//25 29//18 36//37
f 29//18 9//33 36//37
f 30//24 35//34 9//33
f 30//24 27//15 35//34
f 27//15 8//30 35//34
f 28//23 34//31 8//30
f 28//23 25//12 34//31
f 25//12 7//27 34//31
f 26//22 33//28 7//27
f 26//22 23//9 33//28
f 23//9 11//39 33//28
f 31//21 32//25 10//36
f 31//21 22//20 32//25
f 22//20 5//16 32//25
f 29//18 30//24 9//33
f 29//18 21//17 30//24
f 21//17 4//13 30//24
f 27//15 28//23 8//30
f 27//15 19//14 28//23
f 19//14 3//10 28//23
f 25//12 26//22 7//27
f 25//12 15//11 26//22
f 15//11 2//4 26//22
f 23//9 24//26 11//39
f 23//9 16//5 24//26
f 16//5 6//19 24//26
f 17//8 22//20 6//19
f 17//8 20//7 22//20
f 20//7 5//16 22//20
f 20//7 21//17 5//16
f 20//7 18//6 21//17
f 18//6 4//13 21//17
f 18//6 19//14 4//13
f 18//6 13//3 19//14
f 13//3 3//10 19//14
f 16//5 17//8 6//19
f 16//5 14//2 17//8
f 14//2 1//1 17//8
f 13//3 15//11 3//10
f 13//3 14//2 15//11
f 14//2 2//4 15//11
