# Blender v2.79 (sub 0) OBJ File: 'pedra2.blend'
# www.blender.org
mtllib pedra2.mtl
o Icosphere
v -0.098498 -0.236955 0.090913
v 0.443554 -0.113571 0.559920
v -0.535179 -0.117765 0.621830
v -0.482259 -0.292834 0.137591
v -0.148228 0.184292 -0.730843
v 0.758506 -0.171857 -0.418245
v -0.063029 0.339773 0.737636
v -0.600024 0.406779 0.543109
v -0.438987 0.195499 -0.257182
v 0.679880 0.420729 -0.738732
v 0.814746 0.521736 -0.216667
v -0.019952 0.922423 0.064403
v -0.403893 -0.221969 0.459706
v 0.097333 -0.174762 0.292879
v -0.308205 -0.067876 0.660809
v 0.803211 -0.192093 0.097222
v 0.396827 -0.169470 -0.238035
v -0.342109 -0.325610 0.119738
v -0.552681 -0.227560 0.534986
v -0.019467 -0.177834 -0.384266
v -0.420134 -0.106594 -0.359549
v 0.455198 0.028899 -0.703116
v 0.705038 0.306043 0.140099
v 0.991873 0.137679 -0.318037
v -0.435825 0.121560 0.778107
v 0.257754 0.094161 0.799926
v -0.593006 -0.099530 0.430762
v -0.608565 0.138180 0.662571
v -0.447610 0.310827 -0.622302
v -0.524035 -0.087705 -0.112830
v 0.804083 0.060073 -0.718868
v 0.154632 0.464056 -0.907961
v 0.500850 0.619973 0.362656
v -0.389016 0.567158 0.669397
v -0.518168 0.046827 0.228515
v -0.227282 0.663956 -0.628918
v 0.939265 0.312927 -0.498814
v -0.055313 0.666843 0.419854
v 0.475313 0.677527 -0.089553
v -0.392687 0.823077 0.364888
v -0.404746 0.647290 -0.085807
v 0.379617 0.772787 -0.370966
vn 0.2343 -0.9695 0.0713
vn 0.0808 -0.9793 0.1853
vn 0.2224 -0.8718 0.4364
vn 0.5018 -0.6232 0.5998
vn 0.6620 -0.6687 0.3384
vn 0.0477 -0.9987 -0.0131
vn -0.0351 -0.8986 -0.4373
vn 0.0110 -0.9849 -0.1725
vn 0.8434 0.1764 0.5075
vn -0.3675 -0.5532 0.7476
vn 0.0436 -0.7199 0.6926
vn -0.2740 -0.1147 0.9548
vn -0.6063 -0.7844 -0.1304
vn -0.4538 -0.7544 0.4743
vn -0.9862 -0.1446 -0.0806
vn -0.2929 -0.4599 -0.8383
vn -0.5630 -0.6481 -0.5128
vn -0.8617 0.1097 -0.4954
vn 0.3606 -0.8808 -0.3069
vn -0.0364 -0.6863 -0.7264
vn 0.5323 -0.3886 -0.7520
vn 0.3600 -0.1234 0.9247
vn -0.8629 -0.0040 0.5052
vn -0.9666 -0.1609 -0.1995
vn -0.0047 0.3326 -0.9430
vn 0.9943 -0.0971 0.0434
vn 0.1142 0.4435 0.8890
vn 0.5251 0.6898 0.4984
vn 0.2573 0.7595 0.5974
vn -0.9390 0.3188 0.1293
vn -0.2349 0.5777 0.7817
vn -0.4976 0.8307 0.2495
vn -0.9600 0.2792 -0.0217
vn -0.9604 0.2064 -0.1871
vn -0.8039 0.5417 -0.2454
vn 0.4816 0.5110 -0.7119
vn -0.4681 0.7442 -0.4765
vn 0.2961 0.9210 -0.2530
vn 0.6708 0.7398 -0.0510
vn 0.8691 0.3778 -0.3191
vn 0.4555 0.8836 0.1079
vn 0.0529 0.9981 0.0297
usemtl Material.001
s 1
f 1//1 14//2 13//3
f 2//4 14//2 16//5
f 1//1 13//3 18//6
f 1//1 18//6 20//7
f 1//1 20//7 17//8
f 2//4 16//5 23//9
f 3//10 15//11 25//12
f 4//13 19//14 27//15
f 5//16 21//17 29//18
f 6//19 22//20 31//21
f 2//4 23//9 26//22
f 3//10 25//12 28//23
f 4//13 27//15 30//24
f 5//16 29//18 32//25
f 6//19 31//21 24//26
f 7//27 33//28 38//29
f 8//30 34//31 40//32
f 9//33 35//34 41//35
f 10//36 36//37 42//38
f 11//39 37//40 39//41
f 39//41 42//38 12//42
f 39//41 37//40 42//38
f 37//40 10//36 42//38
f 42//38 41//35 12//42
f 42//38 36//37 41//35
f 36//37 9//33 41//35
f 41//35 40//32 12//42
f 41//35 35//34 40//32
f 35//34 8//30 40//32
f 40//32 38//29 12//42
f 40//32 34//31 38//29
f 34//31 7//27 38//29
f 38//29 39//41 12//42
f 38//29 33//28 39//41
f 33//28 11//39 39//41
f 24//26 37//40 11//39
f 24//26 31//21 37//40
f 31//21 10//36 37//40
f 32//25 36//37 10//36
f 32//25 29//18 36//37
f 29//18 9//33 36//37
f 30//24 35//34 9//33
f 30//24 27//15 35//34
f 27//15 8//30 35//34
f 28//23 34//31 8//30
f 28//23 25//12 34//31
f 25//12 7//27 34//31
f 26//22 33//28 7//27
f 26//22 23//9 33//28
f 23//9 11//39 33//28
f 31//21 32//25 10//36
f 31//21 22//20 32//25
f 22//20 5//16 32//25
f 29//18 30//24 9//33
f 29//18 21//17 30//24
f 21//17 4//13 30//24
f 27//15 28//23 8//30
f 27//15 19//14 28//23
f 19//14 3//10 28//23
f 25//12 26//22 7//27
f 25//12 15//11 26//22
f 15//11 2//4 26//22
f 23//9 24//26 11//39
f 23//9 16//5 24//26
f 16//5 6//19 24//26
f 17//8 22//20 6//19
f 17//8 20//7 22//20
f 20//7 5//16 22//20
f 20//7 21//17 5//16
f 20//7 18//6 21//17
f 18//6 4//13 21//17
f 18//6 19//14 4//13
f 18//6 13//3 19//14
f 13//3 3//10 19//14
f 16//5 17//8 6//19
f 16//5 14//2 17//8
f 14//2 1//1 17//8
f 13//3 15//11 3//10
f 13//3 14//2 15//11
f 14//2 2//4 15//11
